<svg xmlns="http://www.w3.org/2000/svg" xmlns:xlink="http://www.w3.org/1999/xlink" width="300" zoomAndPan="magnify" viewBox="0 0 224.87999 60" height="80" preserveAspectRatio="xMidYMid meet" version="1.0"><defs><g/><clipPath id="8f9cd86ff3"><path d="M 196 12 L 224.761719 12 L 224.761719 45 L 196 45 Z M 196 12 " clip-rule="nonzero"/></clipPath></defs><g fill="#be185d" fill-opacity="1"><g transform="translate(0.366749, 42.608425)"><g><path d="M 27.117188 -27.972656 C 28.257812 -28.445312 28.304688 -30.25 27.210938 -30.867188 C 27.117188 -30.960938 27.019531 -31.011719 26.925781 -31.058594 C 27.019531 -31.105469 27.164062 -31.105469 27.257812 -31.105469 C 27.734375 -31.199219 27.589844 -32.007812 27.164062 -31.960938 C 26.453125 -31.863281 25.738281 -31.816406 25.027344 -31.722656 C 24.742188 -31.769531 24.457031 -31.722656 24.21875 -31.722656 C 23.746094 -31.675781 23.269531 -31.628906 22.746094 -31.53125 C 16.144531 -30.960938 9.496094 -30.820312 2.847656 -31.199219 C 2.707031 -31.246094 2.660156 -30.960938 2.800781 -30.960938 C 5.367188 -30.535156 7.929688 -30.25 10.496094 -30.109375 C 10.496094 -30.0625 10.449219 -30.011719 10.449219 -29.964844 C 7.835938 -29.964844 5.269531 -30.15625 2.660156 -30.394531 C 1.613281 -30.488281 0.664062 -29.585938 0.378906 -28.636719 C 0.09375 -27.496094 0.664062 -26.355469 1.613281 -25.835938 C 1.898438 -25.074219 2.515625 -24.410156 3.132812 -23.980469 C 3.988281 -23.460938 5.035156 -23.316406 6.03125 -23.175781 C 7.265625 -23.078125 8.546875 -23.03125 9.832031 -23.03125 C 10.449219 -23.03125 11.066406 -23.03125 11.683594 -23.03125 L 11.683594 -21.511719 L 11.585938 -19.421875 C 11.492188 -16.953125 11.351562 -14.484375 11.207031 -12.0625 C 11.113281 -9.640625 11.066406 -7.171875 11.207031 -4.75 C 11.300781 -2.898438 11.730469 -0.710938 13.722656 -0.09375 C 14.722656 0.191406 15.910156 -0.378906 16.242188 -1.425781 C 16.574219 -2.375 16.621094 -3.703125 16.8125 -4.558594 L 16.8125 -2.753906 C 16.761719 -2.089844 16.761719 -1.425781 16.714844 -0.761719 L 16.714844 -0.664062 C 17.570312 -1.328125 17.761719 -2.46875 17.855469 -3.609375 C 17.808594 -5.269531 17.714844 -6.933594 17.664062 -8.59375 C 17.664062 -11.492188 17.617188 -14.390625 17.617188 -17.285156 C 17.617188 -19.375 17.664062 -21.464844 17.664062 -23.554688 C 20.085938 -23.886719 22.460938 -24.3125 24.882812 -24.789062 C 25.027344 -24.789062 25.121094 -24.882812 25.214844 -24.980469 C 25.453125 -25.027344 25.738281 -25.121094 25.929688 -25.265625 C 26.6875 -25.785156 26.878906 -26.640625 26.925781 -27.496094 C 27.019531 -27.636719 27.070312 -27.78125 27.117188 -27.972656 Z M 6.03125 -24.3125 C 4.890625 -24.363281 3.65625 -24.695312 2.898438 -25.40625 C 4.75 -24.835938 6.648438 -24.503906 8.546875 -24.3125 C 7.691406 -24.265625 6.839844 -24.265625 6.03125 -24.3125 Z M 6.03125 -24.3125 "/></g></g></g><g fill="#be185d" fill-opacity="1"><g transform="translate(27.150162, 42.608425)"><g><path d="M 0.664062 -27.402344 C 0.761719 -26.925781 1.425781 -26.546875 1.851562 -26.402344 C 2.5625 -26.117188 3.277344 -26.023438 4.035156 -26.023438 C 4.9375 -26.023438 5.984375 -26.261719 6.554688 -26.925781 C 7.457031 -27.117188 8.359375 -27.542969 9.070312 -28.066406 C 9.449219 -28.351562 9.78125 -28.824219 9.59375 -29.347656 C 9.117188 -30.582031 8.167969 -31.296875 6.886719 -31.628906 C 5.414062 -32.007812 3.941406 -31.4375 2.707031 -30.582031 C 2.613281 -30.535156 2.515625 -30.441406 2.421875 -30.34375 C 1.945312 -30.011719 1.566406 -29.632812 1.234375 -29.160156 C 0.902344 -28.683594 0.476562 -28.019531 0.664062 -27.402344 Z M 3.847656 -26.261719 C 3.277344 -26.308594 2.753906 -26.402344 2.230469 -26.59375 C 1.898438 -26.6875 1.613281 -26.878906 1.328125 -27.117188 C 0.949219 -27.449219 0.996094 -27.78125 1.1875 -28.207031 C 1.378906 -28.539062 1.566406 -28.824219 1.804688 -29.109375 C 1.328125 -28.019531 1.851562 -26.925781 3.230469 -26.640625 C 4.320312 -26.453125 4.9375 -26.546875 5.507812 -26.6875 C 5.554688 -26.6875 5.222656 -26.261719 3.847656 -26.261719 Z M 8.785156 -2.515625 C 8.878906 -2.042969 9.640625 -2.089844 9.59375 -2.5625 C 8.691406 -9.308594 8.3125 -16.050781 8.5 -22.84375 C 8.5 -22.890625 8.167969 -22.84375 8.167969 -22.746094 C 7.976562 -19.375 7.976562 -14.390625 8.121094 -11.015625 C 8.027344 -11.015625 7.882812 -12.679688 7.789062 -12.632812 C 7.742188 -13.058594 7.691406 -13.488281 7.691406 -13.820312 C 7.644531 -15.578125 7.550781 -17.332031 7.550781 -19.042969 C 7.550781 -20.800781 7.644531 -22.511719 7.644531 -24.265625 C 7.597656 -24.695312 7.21875 -24.882812 6.886719 -24.835938 C 6.125 -26.734375 3.703125 -24.980469 2.707031 -24.3125 C 2.5625 -24.171875 2.421875 -24.03125 2.328125 -23.839844 C 1.757812 -23.269531 1.472656 -22.367188 1.328125 -21.464844 C 1.140625 -19.753906 1.1875 -18 1.1875 -16.289062 C 1.140625 -12.726562 1.378906 -9.210938 1.804688 -5.699219 C 1.996094 -4.367188 2.042969 -2.945312 3.039062 -1.996094 C 3.277344 -1.804688 3.515625 -1.664062 3.75 -1.566406 L 3.847656 -1.425781 C 4.75 -0.523438 6.171875 -0.238281 7.3125 -0.808594 C 7.742188 -0.996094 7.835938 -1.378906 7.789062 -1.710938 C 8.167969 -1.851562 8.546875 -2.136719 8.785156 -2.515625 Z M 3.515625 -21.890625 C 3.515625 -21.988281 3.703125 -22.273438 3.847656 -22.367188 L 3.894531 -22.367188 C 3.371094 -20.847656 3.277344 -19.089844 3.277344 -17.476562 C 3.230469 -15.339844 3.277344 -13.203125 3.277344 -11.066406 L 3.132812 -11.066406 C 2.992188 -12.203125 2.847656 -13.34375 2.753906 -14.484375 C 2.753906 -14.53125 2.753906 -14.53125 2.753906 -14.578125 L 2.753906 -15.054688 C 2.847656 -17.238281 2.800781 -19.753906 3.515625 -21.890625 Z M 3.515625 -21.890625 "/></g></g></g><g fill="#be185d" fill-opacity="1"><g transform="translate(36.36288, 42.608425)"><g><path d="M 22.890625 -18 C 22.035156 -19.234375 20.421875 -19.804688 19.089844 -18.996094 C 17.664062 -18.1875 17.476562 -16.574219 18.09375 -15.195312 C 18.378906 -14.53125 18.425781 -13.820312 18.472656 -13.058594 C 18.519531 -11.398438 18.332031 -9.59375 17.476562 -8.074219 C 17.191406 -7.503906 16.714844 -6.933594 16.242188 -6.507812 C 14.960938 -5.367188 13.296875 -4.75 11.539062 -4.703125 C 11.351562 -4.703125 11.113281 -4.75 10.921875 -4.75 C 7.835938 -4.9375 6.171875 -7.597656 5.269531 -10.398438 C 4.9375 -11.445312 4.75 -12.535156 4.796875 -13.675781 C 4.796875 -13.914062 4.796875 -14.199219 4.84375 -14.4375 C 4.84375 -14.722656 4.890625 -14.722656 4.9375 -15.101562 C 5.699219 -19.136719 7.457031 -22.367188 10.683594 -24.835938 C 10.921875 -24.980469 11.113281 -25.121094 11.300781 -25.265625 L 11.585938 -16.097656 C 11.636719 -14.578125 11.585938 -13.011719 12.253906 -11.539062 C 12.773438 -10.398438 14.058594 -9.59375 15.292969 -9.734375 C 16.289062 -9.832031 16.097656 -11.300781 15.101562 -11.113281 C 13.722656 -10.875 13.058594 -12.394531 12.773438 -13.488281 L 12.773438 -13.628906 L 12.917969 -13.628906 C 13.011719 -13.34375 13.105469 -13.011719 13.296875 -12.726562 C 13.582031 -12.15625 14.007812 -11.683594 14.625 -11.492188 C 14.722656 -11.492188 14.863281 -11.445312 15.007812 -11.492188 C 15.054688 -11.398438 15.148438 -11.351562 15.292969 -11.253906 C 15.527344 -11.113281 15.910156 -11.253906 15.957031 -11.539062 C 16.097656 -12.15625 16.003906 -12.820312 16.003906 -13.488281 C 15.957031 -14.246094 15.910156 -15.054688 15.910156 -15.863281 L 15.765625 -20.371094 C 15.71875 -21.890625 15.671875 -26.546875 15.765625 -27.355469 C 15.8125 -28.066406 15.863281 -28.636719 15.578125 -29.207031 C 15.578125 -30.011719 14.960938 -30.726562 13.960938 -30.820312 C 12.820312 -30.914062 11.636719 -30.582031 10.683594 -30.011719 C 9.6875 -29.441406 8.738281 -28.824219 7.835938 -28.160156 C 5.886719 -26.785156 3.800781 -24.648438 2.375 -22.746094 C 0.238281 -19.992188 -0.476562 -16.574219 -0.523438 -13.105469 C -0.523438 -12.0625 -0.378906 -11.015625 -0.191406 -10.019531 C 0.710938 -5.839844 3.800781 -2.375 7.691406 -0.808594 C 11.683594 0.808594 16.382812 -0.238281 19.613281 -2.847656 C 21.609375 -4.417969 22.792969 -6.933594 23.410156 -9.355469 C 24.125 -12.015625 24.457031 -15.578125 22.890625 -18 Z M 12.253906 -25.929688 C 12.109375 -24.171875 12.109375 -22.414062 12.203125 -20.65625 L 11.96875 -20.65625 C 11.824219 -22.226562 11.636719 -23.792969 11.492188 -25.40625 C 11.730469 -25.550781 12.015625 -25.738281 12.253906 -25.929688 Z M 18.046875 -15.292969 C 18.046875 -15.339844 18 -15.386719 18 -15.386719 C 18 -15.339844 18.046875 -15.339844 18.046875 -15.292969 Z M 18.09375 -15.195312 C 18.09375 -15.242188 18.046875 -15.242188 18.046875 -15.292969 C 18.046875 -15.242188 18.046875 -15.242188 18.09375 -15.195312 Z M 18.09375 -15.195312 "/></g></g></g><g fill="#be185d" fill-opacity="1"><g transform="translate(60.296993, 42.608425)"><g/></g></g><g fill="#be185d" fill-opacity="1"><g transform="translate(69.03482, 42.608425)"><g><path d="M 27.117188 -27.972656 C 28.257812 -28.445312 28.304688 -30.25 27.210938 -30.867188 C 27.117188 -30.960938 27.019531 -31.011719 26.925781 -31.058594 C 27.019531 -31.105469 27.164062 -31.105469 27.257812 -31.105469 C 27.734375 -31.199219 27.589844 -32.007812 27.164062 -31.960938 C 26.453125 -31.863281 25.738281 -31.816406 25.027344 -31.722656 C 24.742188 -31.769531 24.457031 -31.722656 24.21875 -31.722656 C 23.746094 -31.675781 23.269531 -31.628906 22.746094 -31.53125 C 16.144531 -30.960938 9.496094 -30.820312 2.847656 -31.199219 C 2.707031 -31.246094 2.660156 -30.960938 2.800781 -30.960938 C 5.367188 -30.535156 7.929688 -30.25 10.496094 -30.109375 C 10.496094 -30.0625 10.449219 -30.011719 10.449219 -29.964844 C 7.835938 -29.964844 5.269531 -30.15625 2.660156 -30.394531 C 1.613281 -30.488281 0.664062 -29.585938 0.378906 -28.636719 C 0.09375 -27.496094 0.664062 -26.355469 1.613281 -25.835938 C 1.898438 -25.074219 2.515625 -24.410156 3.132812 -23.980469 C 3.988281 -23.460938 5.035156 -23.316406 6.03125 -23.175781 C 7.265625 -23.078125 8.546875 -23.03125 9.832031 -23.03125 C 10.449219 -23.03125 11.066406 -23.03125 11.683594 -23.03125 L 11.683594 -21.511719 L 11.585938 -19.421875 C 11.492188 -16.953125 11.351562 -14.484375 11.207031 -12.0625 C 11.113281 -9.640625 11.066406 -7.171875 11.207031 -4.75 C 11.300781 -2.898438 11.730469 -0.710938 13.722656 -0.09375 C 14.722656 0.191406 15.910156 -0.378906 16.242188 -1.425781 C 16.574219 -2.375 16.621094 -3.703125 16.8125 -4.558594 L 16.8125 -2.753906 C 16.761719 -2.089844 16.761719 -1.425781 16.714844 -0.761719 L 16.714844 -0.664062 C 17.570312 -1.328125 17.761719 -2.46875 17.855469 -3.609375 C 17.808594 -5.269531 17.714844 -6.933594 17.664062 -8.59375 C 17.664062 -11.492188 17.617188 -14.390625 17.617188 -17.285156 C 17.617188 -19.375 17.664062 -21.464844 17.664062 -23.554688 C 20.085938 -23.886719 22.460938 -24.3125 24.882812 -24.789062 C 25.027344 -24.789062 25.121094 -24.882812 25.214844 -24.980469 C 25.453125 -25.027344 25.738281 -25.121094 25.929688 -25.265625 C 26.6875 -25.785156 26.878906 -26.640625 26.925781 -27.496094 C 27.019531 -27.636719 27.070312 -27.78125 27.117188 -27.972656 Z M 6.03125 -24.3125 C 4.890625 -24.363281 3.65625 -24.695312 2.898438 -25.40625 C 4.75 -24.835938 6.648438 -24.503906 8.546875 -24.3125 C 7.691406 -24.265625 6.839844 -24.265625 6.03125 -24.3125 Z M 6.03125 -24.3125 "/></g></g></g><g fill="#be185d" fill-opacity="1"><g transform="translate(95.818231, 42.608425)"><g><path d="M 17.382812 -1.425781 C 18.472656 1.996094 21.988281 1.898438 21.464844 -2.375 C 21.085938 -5.222656 20.277344 -9.070312 19.660156 -11.871094 C 22.273438 -13.535156 21.75 -17.808594 18.140625 -18.234375 C 17.808594 -21.085938 17.523438 -28.257812 17.476562 -27.78125 C 17.285156 -26.214844 17.191406 -24.550781 17.144531 -22.9375 C 17.097656 -22.9375 17.097656 -22.9375 17.046875 -22.984375 C 16.859375 -24.835938 16.667969 -26.785156 16.527344 -28.683594 C 16.382812 -30.203125 15.386719 -31.152344 14.007812 -31.246094 C 13.628906 -32.007812 12.679688 -32.578125 11.871094 -32.53125 C 9.449219 -32.484375 8.5 -29.539062 7.644531 -27.6875 C 6.410156 -24.742188 5.652344 -21.65625 4.988281 -18.519531 C -0.664062 -17.664062 -0.664062 -12.488281 2.375 -11.730469 C 2.421875 -11.585938 2.375 -11.398438 2.328125 -11.300781 C 2.707031 -11.300781 3.183594 -11.351562 3.609375 -11.398438 C 2.898438 -8.644531 2.421875 -5.886719 2.042969 -3.085938 C 1.425781 1.378906 7.3125 2.042969 7.691406 -2.28125 L 7.976562 -4.417969 C 7.976562 -4.417969 8.785156 -9.261719 9.402344 -11.585938 L 9.832031 -11.585938 C 8.929688 -8.785156 8.5 -5.886719 8.261719 -3.039062 C 8.214844 -2.46875 9.023438 -2.46875 9.023438 -3.039062 C 9.261719 -5.9375 9.78125 -8.738281 10.496094 -11.585938 L 14.199219 -11.636719 C 14.578125 -9.925781 16.480469 -1.757812 17.382812 -1.425781 Z M 10.351562 -17.761719 C 10.78125 -19.992188 11.351562 -21.890625 12.109375 -24.550781 C 12.585938 -22.367188 12.820312 -19.136719 13.011719 -17.949219 C 12.347656 -17.902344 11.015625 -17.855469 10.351562 -17.761719 Z M 10.351562 -17.761719 "/></g></g></g><g fill="#be185d" fill-opacity="1"><g transform="translate(117.377925, 42.608425)"><g><path d="M 22.890625 -18 C 22.035156 -19.234375 20.421875 -19.804688 19.089844 -18.996094 C 17.664062 -18.1875 17.476562 -16.574219 18.09375 -15.195312 C 18.378906 -14.53125 18.425781 -13.820312 18.472656 -13.058594 C 18.519531 -11.398438 18.332031 -9.59375 17.476562 -8.074219 C 17.191406 -7.503906 16.714844 -6.933594 16.242188 -6.507812 C 14.960938 -5.367188 13.296875 -4.75 11.539062 -4.703125 C 11.351562 -4.703125 11.113281 -4.75 10.921875 -4.75 C 7.835938 -4.9375 6.171875 -7.597656 5.269531 -10.398438 C 4.9375 -11.445312 4.75 -12.535156 4.796875 -13.675781 C 4.796875 -13.914062 4.796875 -14.199219 4.84375 -14.4375 C 4.84375 -14.722656 4.890625 -14.722656 4.9375 -15.101562 C 5.699219 -19.136719 7.457031 -22.367188 10.683594 -24.835938 C 10.921875 -24.980469 11.113281 -25.121094 11.300781 -25.265625 L 11.585938 -16.097656 C 11.636719 -14.578125 11.585938 -13.011719 12.253906 -11.539062 C 12.773438 -10.398438 14.058594 -9.59375 15.292969 -9.734375 C 16.289062 -9.832031 16.097656 -11.300781 15.101562 -11.113281 C 13.722656 -10.875 13.058594 -12.394531 12.773438 -13.488281 L 12.773438 -13.628906 L 12.917969 -13.628906 C 13.011719 -13.34375 13.105469 -13.011719 13.296875 -12.726562 C 13.582031 -12.15625 14.007812 -11.683594 14.625 -11.492188 C 14.722656 -11.492188 14.863281 -11.445312 15.007812 -11.492188 C 15.054688 -11.398438 15.148438 -11.351562 15.292969 -11.253906 C 15.527344 -11.113281 15.910156 -11.253906 15.957031 -11.539062 C 16.097656 -12.15625 16.003906 -12.820312 16.003906 -13.488281 C 15.957031 -14.246094 15.910156 -15.054688 15.910156 -15.863281 L 15.765625 -20.371094 C 15.71875 -21.890625 15.671875 -26.546875 15.765625 -27.355469 C 15.8125 -28.066406 15.863281 -28.636719 15.578125 -29.207031 C 15.578125 -30.011719 14.960938 -30.726562 13.960938 -30.820312 C 12.820312 -30.914062 11.636719 -30.582031 10.683594 -30.011719 C 9.6875 -29.441406 8.738281 -28.824219 7.835938 -28.160156 C 5.886719 -26.785156 3.800781 -24.648438 2.375 -22.746094 C 0.238281 -19.992188 -0.476562 -16.574219 -0.523438 -13.105469 C -0.523438 -12.0625 -0.378906 -11.015625 -0.191406 -10.019531 C 0.710938 -5.839844 3.800781 -2.375 7.691406 -0.808594 C 11.683594 0.808594 16.382812 -0.238281 19.613281 -2.847656 C 21.609375 -4.417969 22.792969 -6.933594 23.410156 -9.355469 C 24.125 -12.015625 24.457031 -15.578125 22.890625 -18 Z M 12.253906 -25.929688 C 12.109375 -24.171875 12.109375 -22.414062 12.203125 -20.65625 L 11.96875 -20.65625 C 11.824219 -22.226562 11.636719 -23.792969 11.492188 -25.40625 C 11.730469 -25.550781 12.015625 -25.738281 12.253906 -25.929688 Z M 18.046875 -15.292969 C 18.046875 -15.339844 18 -15.386719 18 -15.386719 C 18 -15.339844 18.046875 -15.339844 18.046875 -15.292969 Z M 18.09375 -15.195312 C 18.09375 -15.242188 18.046875 -15.242188 18.046875 -15.292969 C 18.046875 -15.242188 18.046875 -15.242188 18.09375 -15.195312 Z M 18.09375 -15.195312 "/></g></g></g><g fill="#be185d" fill-opacity="1"><g transform="translate(141.312034, 42.608425)"><g/></g></g><g fill="#be185d" fill-opacity="1"><g transform="translate(150.049861, 42.608425)"><g><path d="M 27.117188 -27.972656 C 28.257812 -28.445312 28.304688 -30.25 27.210938 -30.867188 C 27.117188 -30.960938 27.019531 -31.011719 26.925781 -31.058594 C 27.019531 -31.105469 27.164062 -31.105469 27.257812 -31.105469 C 27.734375 -31.199219 27.589844 -32.007812 27.164062 -31.960938 C 26.453125 -31.863281 25.738281 -31.816406 25.027344 -31.722656 C 24.742188 -31.769531 24.457031 -31.722656 24.21875 -31.722656 C 23.746094 -31.675781 23.269531 -31.628906 22.746094 -31.53125 C 16.144531 -30.960938 9.496094 -30.820312 2.847656 -31.199219 C 2.707031 -31.246094 2.660156 -30.960938 2.800781 -30.960938 C 5.367188 -30.535156 7.929688 -30.25 10.496094 -30.109375 C 10.496094 -30.0625 10.449219 -30.011719 10.449219 -29.964844 C 7.835938 -29.964844 5.269531 -30.15625 2.660156 -30.394531 C 1.613281 -30.488281 0.664062 -29.585938 0.378906 -28.636719 C 0.09375 -27.496094 0.664062 -26.355469 1.613281 -25.835938 C 1.898438 -25.074219 2.515625 -24.410156 3.132812 -23.980469 C 3.988281 -23.460938 5.035156 -23.316406 6.03125 -23.175781 C 7.265625 -23.078125 8.546875 -23.03125 9.832031 -23.03125 C 10.449219 -23.03125 11.066406 -23.03125 11.683594 -23.03125 L 11.683594 -21.511719 L 11.585938 -19.421875 C 11.492188 -16.953125 11.351562 -14.484375 11.207031 -12.0625 C 11.113281 -9.640625 11.066406 -7.171875 11.207031 -4.75 C 11.300781 -2.898438 11.730469 -0.710938 13.722656 -0.09375 C 14.722656 0.191406 15.910156 -0.378906 16.242188 -1.425781 C 16.574219 -2.375 16.621094 -3.703125 16.8125 -4.558594 L 16.8125 -2.753906 C 16.761719 -2.089844 16.761719 -1.425781 16.714844 -0.761719 L 16.714844 -0.664062 C 17.570312 -1.328125 17.761719 -2.46875 17.855469 -3.609375 C 17.808594 -5.269531 17.714844 -6.933594 17.664062 -8.59375 C 17.664062 -11.492188 17.617188 -14.390625 17.617188 -17.285156 C 17.617188 -19.375 17.664062 -21.464844 17.664062 -23.554688 C 20.085938 -23.886719 22.460938 -24.3125 24.882812 -24.789062 C 25.027344 -24.789062 25.121094 -24.882812 25.214844 -24.980469 C 25.453125 -25.027344 25.738281 -25.121094 25.929688 -25.265625 C 26.6875 -25.785156 26.878906 -26.640625 26.925781 -27.496094 C 27.019531 -27.636719 27.070312 -27.78125 27.117188 -27.972656 Z M 6.03125 -24.3125 C 4.890625 -24.363281 3.65625 -24.695312 2.898438 -25.40625 C 4.75 -24.835938 6.648438 -24.503906 8.546875 -24.3125 C 7.691406 -24.265625 6.839844 -24.265625 6.03125 -24.3125 Z M 6.03125 -24.3125 "/></g></g></g><g fill="#be185d" fill-opacity="1"><g transform="translate(176.833281, 42.608425)"><g><path d="M 17.949219 -20.371094 C 17.714844 -21.796875 17.429688 -23.269531 17 -24.695312 C 16.527344 -26.070312 15.863281 -27.402344 15.195312 -28.683594 C 14.960938 -29.109375 14.484375 -29.207031 14.105469 -29.0625 C 13.773438 -29.679688 13.296875 -30.488281 12.679688 -30.867188 C 12.109375 -31.199219 11.300781 -31.199219 10.636719 -31.058594 C 10.019531 -31.105469 9.402344 -30.914062 8.785156 -30.679688 C 7.265625 -30.34375 6.125 -28.875 5.320312 -27.117188 C 5.222656 -27.117188 5.082031 -27.164062 4.9375 -27.117188 C 5.128906 -27.636719 5.320312 -28.160156 5.554688 -28.683594 C 5.746094 -29.160156 6.03125 -29.632812 6.316406 -30.109375 C 6.363281 -30.203125 6.269531 -30.25 6.222656 -30.15625 C 5.414062 -29.109375 4.796875 -27.972656 4.320312 -26.734375 C 4.273438 -26.6875 4.273438 -26.640625 4.226562 -26.640625 C 1.042969 -21.324219 0.191406 -15.054688 1.140625 -8.976562 C 1.613281 -6.171875 2.5625 -3.324219 4.796875 -1.425781 C 6.078125 -0.378906 7.835938 0.191406 9.402344 -0.09375 C 9.925781 -0.046875 10.449219 -0.046875 10.96875 -0.09375 C 12.300781 -0.285156 13.390625 -0.902344 14.292969 -1.804688 C 14.960938 -2.375 15.527344 -3.039062 16.050781 -3.75 C 17.617188 -5.984375 18.046875 -8.878906 18.285156 -11.492188 C 18.617188 -14.484375 18.425781 -17.429688 17.949219 -20.371094 Z M 12.015625 -6.554688 C 11.871094 -5.984375 11.636719 -5.460938 11.351562 -4.9375 C 11.066406 -4.417969 10.636719 -3.988281 10.066406 -3.800781 C 8.027344 -3.183594 6.363281 -5.128906 5.605469 -6.695312 C 6.078125 -6.410156 6.695312 -6.269531 7.265625 -6.410156 C 7.457031 -6.457031 7.644531 -6.554688 7.789062 -6.648438 C 7.074219 -9.734375 6.695312 -12.964844 6.839844 -16.195312 C 6.933594 -17.285156 7.027344 -18.378906 7.21875 -19.46875 C 7.265625 -19.519531 7.265625 -19.566406 7.3125 -19.660156 C 7.691406 -21.609375 8.3125 -23.554688 9.210938 -25.3125 C 9.402344 -25.644531 9.59375 -26.023438 9.878906 -26.214844 C 7.171875 -20.515625 7.074219 -13.535156 8.40625 -7.359375 C 8.644531 -7.789062 8.691406 -8.261719 8.59375 -8.785156 C 8.027344 -12.300781 7.976562 -15.957031 8.40625 -19.46875 C 8.644531 -21.273438 9.070312 -23.03125 9.59375 -24.742188 C 9.734375 -25.214844 9.925781 -25.835938 10.210938 -26.355469 L 10.449219 -26.355469 C 10.496094 -26.355469 10.589844 -26.308594 10.636719 -26.261719 C 10.828125 -25.929688 10.96875 -25.550781 11.113281 -25.214844 C 11.445312 -24.410156 11.730469 -23.554688 12.015625 -22.699219 C 12.15625 -22.035156 12.253906 -21.324219 12.394531 -20.609375 C 12.773438 -18.285156 12.917969 -15.863281 13.105469 -13.488281 C 13.105469 -11.160156 12.820312 -8.785156 12.015625 -6.554688 Z M 12.015625 -6.554688 "/></g></g></g><g clip-path="url(#8f9cd86ff3)"><g fill="#be185d" fill-opacity="1"><g transform="translate(196.01856, 42.608425)"><g><path d="M 1.09375 -25.074219 C 0.996094 -24.980469 0.996094 -24.835938 1.09375 -24.789062 C 2.136719 -25.265625 3.183594 -25.691406 4.273438 -26.023438 C 7.410156 -27.117188 10.636719 -27.828125 13.867188 -28.539062 C 15.71875 -28.96875 17.617188 -29.441406 19.46875 -29.917969 C 19.042969 -29.917969 18.617188 -29.917969 18.1875 -29.871094 C 16.144531 -29.726562 14.199219 -29.347656 12.253906 -28.96875 L 11.160156 -28.683594 C 7.742188 -27.78125 4.226562 -26.734375 1.09375 -25.074219 Z M 27.734375 -5.746094 C 28.304688 -6.171875 28.683594 -6.839844 28.636719 -7.691406 C 28.445312 -10.398438 27.542969 -14.578125 23.886719 -13.820312 C 23.363281 -13.675781 22.890625 -13.4375 22.367188 -13.296875 L 20.515625 -12.726562 C 19.375 -12.347656 18.234375 -11.917969 17.097656 -11.492188 C 16.382812 -11.253906 15.671875 -10.96875 14.960938 -10.683594 L 10.921875 -9.117188 C 9.878906 -8.691406 8.832031 -8.261719 7.789062 -7.789062 L 7.644531 -7.691406 C 7.644531 -7.789062 7.644531 -7.835938 7.644531 -7.882812 L 7.359375 -10.96875 C 8.691406 -11.636719 9.972656 -12.300781 11.351562 -12.871094 C 13.582031 -13.820312 15.8125 -14.53125 18.09375 -15.148438 C 19.234375 -15.433594 20.421875 -15.671875 21.558594 -15.863281 C 22.652344 -16.097656 23.695312 -16.050781 24.695312 -16.527344 C 25.550781 -16.953125 26.117188 -18 25.929688 -18.902344 C 25.835938 -19.375 25.550781 -19.851562 25.121094 -20.085938 C 25.074219 -20.085938 25.074219 -20.085938 25.027344 -20.136719 C 24.980469 -20.324219 24.882812 -20.515625 24.789062 -20.707031 C 24.742188 -20.800781 24.695312 -20.941406 24.597656 -21.085938 C 23.933594 -22.226562 22.792969 -22.273438 21.609375 -22.226562 C 21.039062 -22.175781 20.515625 -22.128906 19.945312 -22.035156 L 19.328125 -21.890625 C 17.808594 -21.464844 16.242188 -21.039062 14.722656 -20.65625 C 12.015625 -19.660156 9.402344 -18.519531 6.742188 -17.382812 C 6.742188 -17.617188 6.457031 -19.328125 6.410156 -19.804688 L 6.507812 -19.898438 C 7.976562 -20.515625 9.496094 -21.085938 11.015625 -21.609375 C 11.539062 -21.84375 16.242188 -23.269531 18.664062 -23.933594 C 18.757812 -23.933594 18.851562 -23.980469 18.949219 -24.03125 C 20.039062 -24.3125 21.132812 -24.648438 22.175781 -24.980469 L 24.550781 -25.691406 C 24.742188 -26.640625 24.597656 -27.636719 24.265625 -28.636719 C 24.03125 -28.824219 23.746094 -29.0625 23.507812 -29.253906 L 22.746094 -29.539062 C 22.460938 -29.632812 22.128906 -29.679688 21.796875 -29.726562 C 19.328125 -29.0625 16.859375 -28.398438 14.339844 -27.828125 C 11.113281 -27.164062 7.882812 -26.453125 4.75 -25.359375 C 3.75 -25.027344 2.707031 -24.648438 1.710938 -24.21875 C 1.664062 -24.078125 1.566406 -23.933594 1.519531 -23.839844 C 0.855469 -23.269531 0.425781 -22.558594 0.332031 -21.609375 C 0.238281 -20.800781 0.523438 -19.898438 1.09375 -19.28125 L 1.664062 -13.867188 L 2.230469 -8.167969 C 2.375 -6.507812 2.46875 -4.796875 2.753906 -3.183594 C 2.328125 -1.945312 3.132812 -0.523438 4.320312 -0.046875 C 4.273438 0.191406 4.273438 0.378906 4.367188 0.617188 C 4.75 1.425781 5.605469 1.472656 6.363281 1.328125 C 6.554688 1.328125 6.839844 1.28125 6.839844 1.28125 C 6.789062 1.328125 9.496094 0.523438 10.066406 0.140625 L 10.113281 0.09375 C 10.636719 -0.140625 11.160156 -0.332031 11.683594 -0.570312 C 11.777344 -0.617188 11.917969 -0.664062 12.015625 -0.710938 L 12.0625 -0.710938 C 13.628906 -1.378906 15.242188 -1.945312 16.859375 -2.515625 C 20.230469 -3.703125 23.746094 -4.605469 27.257812 -5.269531 C 27.542969 -5.320312 27.6875 -5.507812 27.734375 -5.746094 Z M 16.242188 -15.8125 L 16.289062 -15.671875 C 16.003906 -15.578125 15.765625 -15.480469 15.480469 -15.339844 C 13.105469 -14.390625 10.636719 -13.488281 8.3125 -12.300781 C 8.691406 -12.632812 8.976562 -13.105469 9.070312 -13.628906 C 9.972656 -13.867188 10.875 -14.152344 11.824219 -14.4375 C 13.296875 -14.910156 14.769531 -15.339844 16.242188 -15.8125 Z M 5.746094 0.617188 C 6.695312 0.378906 7.597656 0 8.5 -0.332031 C 9.402344 -0.617188 10.257812 -0.949219 11.113281 -1.28125 L 11.113281 -1.1875 C 10.398438 -0.808594 9.6875 -0.425781 8.929688 -0.046875 C 8.59375 0.140625 8.214844 0.332031 7.835938 0.523438 C 7.789062 0.570312 7.742188 0.570312 7.691406 0.570312 C 7.550781 0.617188 6.457031 0.710938 5.746094 0.617188 Z M 5.746094 0.617188 "/></g></g></g></g><g fill="#ffffff" fill-opacity="1"><g transform="translate(64.429708, 56.411401)"><g><path d="M 0.363281 0 L 2.285156 0 L 2.285156 -1.824219 L 5.425781 -1.824219 L 5.425781 -2.917969 L 2.285156 -2.917969 L 2.285156 -3.863281 L 5.863281 -3.863281 L 5.863281 -5.207031 L 0.363281 -5.207031 Z M 0.363281 0 "/></g></g></g><g fill="#ffffff" fill-opacity="1"><g transform="translate(73.806503, 56.411401)"><g><path d="M 3.652344 0.125 C 5.777344 0.125 7.003906 -0.769531 7.003906 -2.386719 L 7.003906 -5.207031 L 5.085938 -5.207031 L 5.085938 -2.496094 C 5.085938 -1.664062 4.546875 -1.257812 3.652344 -1.257812 C 2.75 -1.257812 2.210938 -1.664062 2.210938 -2.496094 L 2.210938 -5.207031 L 0.289062 -5.207031 L 0.289062 -2.386719 C 0.289062 -0.769531 1.519531 0.125 3.652344 0.125 Z M 3.652344 0.125 "/></g></g></g><g fill="#ffffff" fill-opacity="1"><g transform="translate(84.478158, 56.411401)"><g><path d="M 0.363281 0 L 2.175781 0 L 2.175781 -3.425781 L 2.183594 -3.425781 L 4.976562 0 L 7.28125 0 L 7.28125 -5.207031 L 5.46875 -5.207031 L 5.46875 -1.824219 L 5.464844 -1.824219 L 2.667969 -5.207031 L 0.363281 -5.207031 Z M 0.363281 0 "/></g></g></g><g fill="#ffffff" fill-opacity="1"><g transform="translate(95.498989, 56.411401)"><g/></g></g><g fill="#ffffff" fill-opacity="1"><g transform="translate(100.576557, 56.411401)"><g><path d="M 3.601562 0.125 C 4.683594 0.125 5.667969 -0.269531 6.152344 -0.871094 L 6.160156 -0.871094 L 6.234375 0 L 7.746094 0 L 7.746094 -3.003906 L 3.136719 -3.003906 L 3.136719 -2.050781 L 5.898438 -2.050781 C 5.828125 -1.503906 5.113281 -1.113281 4.167969 -1.113281 C 2.96875 -1.113281 2.160156 -1.695312 2.160156 -2.546875 C 2.160156 -3.449219 2.875 -4.042969 3.929688 -4.042969 C 4.613281 -4.042969 5.195312 -3.753906 5.332031 -3.316406 L 7.128906 -3.621094 C 6.910156 -4.648438 5.617188 -5.339844 3.929688 -5.339844 C 1.714844 -5.339844 0.234375 -4.199219 0.234375 -2.496094 C 0.234375 -0.929688 1.585938 0.125 3.601562 0.125 Z M 3.601562 0.125 "/></g></g></g><g fill="#ffffff" fill-opacity="1"><g transform="translate(111.953834, 56.411401)"><g><path d="M 0 0 L 1.992188 0 L 2.386719 -0.902344 L 4.976562 -0.902344 L 5.375 0 L 7.363281 0 L 4.832031 -5.207031 L 2.605469 -5.207031 Z M 2.75 -1.972656 L 3.679688 -4.039062 L 3.695312 -4.039062 L 4.613281 -1.972656 Z M 2.75 -1.972656 "/></g></g></g><g fill="#ffffff" fill-opacity="1"><g transform="translate(122.698231, 56.411401)"><g><path d="M 0.363281 0 L 2.175781 0 L 2.175781 -3.246094 L 2.191406 -3.246094 L 3.878906 0 L 5.5 0 L 7.128906 -3.25 L 7.144531 -3.25 L 7.144531 0 L 8.953125 0 L 8.953125 -5.207031 L 6.445312 -5.207031 L 4.664062 -1.695312 L 4.648438 -1.695312 L 2.835938 -5.207031 L 0.363281 -5.207031 Z M 0.363281 0 "/></g></g></g><g fill="#ffffff" fill-opacity="1"><g transform="translate(135.392189, 56.411401)"><g><path d="M 0.363281 0 L 2.277344 0 L 2.277344 -5.207031 L 0.363281 -5.207031 Z M 0.363281 0 "/></g></g></g><g fill="#ffffff" fill-opacity="1"><g transform="translate(141.408171, 56.411401)"><g><path d="M 0.363281 0 L 2.175781 0 L 2.175781 -3.425781 L 2.183594 -3.425781 L 4.976562 0 L 7.28125 0 L 7.28125 -5.207031 L 5.46875 -5.207031 L 5.46875 -1.824219 L 5.464844 -1.824219 L 2.667969 -5.207031 L 0.363281 -5.207031 Z M 0.363281 0 "/></g></g></g><g fill="#ffffff" fill-opacity="1"><g transform="translate(152.429006, 56.411401)"><g><path d="M 3.601562 0.125 C 4.683594 0.125 5.667969 -0.269531 6.152344 -0.871094 L 6.160156 -0.871094 L 6.234375 0 L 7.746094 0 L 7.746094 -3.003906 L 3.136719 -3.003906 L 3.136719 -2.050781 L 5.898438 -2.050781 C 5.828125 -1.503906 5.113281 -1.113281 4.167969 -1.113281 C 2.96875 -1.113281 2.160156 -1.695312 2.160156 -2.546875 C 2.160156 -3.449219 2.875 -4.042969 3.929688 -4.042969 C 4.613281 -4.042969 5.195312 -3.753906 5.332031 -3.316406 L 7.128906 -3.621094 C 6.910156 -4.648438 5.617188 -5.339844 3.929688 -5.339844 C 1.714844 -5.339844 0.234375 -4.199219 0.234375 -2.496094 C 0.234375 -0.929688 1.585938 0.125 3.601562 0.125 Z M 3.601562 0.125 "/></g></g></g></svg>